<svg xmlns="http://www.w3.org/2000/svg" width="1920" height="92" viewBox="0 0 1920 92" fill="none">
<path d="M1921.43 89.0376V0.20752C1912.42 0.20752 1906.54 2.9508 1901.05 6.21661C1900.92 6.34725 1900.66 6.47788 1900.53 6.47788C1899.49 7.00041 1898.57 7.65357 1897.66 8.1761C1897.53 8.30673 1897.27 8.43736 1897.13 8.43736C1891.26 11.9644 1885.12 15.2303 1875.45 15.2303C1854.55 15.2303 1850.37 0.20752 1829.47 0.20752C1824.9 0.20752 1821.11 0.991314 1817.84 2.03637C1816.53 2.42827 1815.23 2.9508 1814.05 3.60396C1813.53 3.86523 1813.01 4.12649 1812.48 4.38776C1811.05 5.17155 1809.61 5.95535 1808.3 6.73914C1807.91 7.00041 1807.52 7.26167 1807 7.52294C1806.74 7.65357 1806.35 7.91484 1806.08 8.04547C1799.94 11.7032 1793.67 15.3609 1783.48 15.3609C1762.58 15.3609 1758.4 0.338152 1737.5 0.338152C1716.6 0.338152 1712.42 15.3609 1691.52 15.3609C1670.62 15.3609 1666.44 0.338152 1645.67 0.338152C1645.67 0.338152 1645.67 0.338152 1645.54 0.338152C1645.54 0.338152 1645.54 0.338152 1645.41 0.338152C1624.64 0.468785 1620.46 15.3609 1599.55 15.3609C1578.65 15.3609 1574.47 0.338152 1553.57 0.338152C1532.67 0.338152 1528.49 15.3609 1507.46 15.3609C1486.56 15.3609 1482.38 0.338152 1461.48 0.338152C1440.57 0.338152 1436.39 15.3609 1415.49 15.3609C1397.73 15.3609 1391.98 4.38776 1377.74 1.25258C1376.3 0.860681 1374.74 0.599418 1373.04 0.468785V0.20752C1372.38 0.20752 1371.86 0.20752 1371.21 0.20752C1370.69 0.20752 1370.03 0.20752 1369.38 0.20752V0.338152C1368.86 0.338152 1368.33 0.468785 1367.68 0.468785C1367.03 0.468785 1366.64 0.599416 1366.11 0.730049C1364.02 1.12195 1362.19 1.64448 1360.5 2.29764C1360.1 2.42827 1359.58 2.5589 1359.19 2.82017C1348.61 7.13104 1342.34 15.2303 1326.92 15.2303C1306.02 15.2303 1301.84 0.20752 1280.94 0.20752C1260.04 0.20752 1255.86 15.2303 1234.83 15.2303C1213.93 15.2303 1209.75 0.20752 1188.85 0.20752C1167.94 0.20752 1163.76 15.2303 1142.86 15.2303C1121.96 15.2303 1117.78 0.20752 1097.01 0.20752C1097.01 0.20752 1097.01 0.20752 1096.88 0.20752C1096.88 0.20752 1096.88 0.20752 1096.75 0.20752C1075.98 0.338152 1071.8 15.2303 1050.9 15.2303C1030 15.2303 1025.82 0.20752 1004.92 0.20752C984.014 0.20752 979.834 15.2303 958.802 15.2303C937.901 15.2303 933.72 0.20752 912.819 0.20752C891.918 0.20752 887.738 15.2303 866.836 15.2303C846.588 15.2303 842.016 1.12195 822.683 0.20752C822.421 0.20752 822.03 0.20752 821.768 0.20752C821.507 0.20752 821.115 0.20752 820.854 0.20752C801.52 1.12195 796.948 15.2303 776.7 15.2303C755.799 15.2303 751.619 0.20752 730.718 0.20752C709.816 0.20752 705.636 15.2303 684.604 15.2303C663.703 15.2303 659.523 0.20752 638.622 0.20752C617.72 0.20752 613.54 15.2303 592.639 15.2303C571.738 15.2303 567.558 0.20752 546.787 0.20752C546.787 0.20752 546.787 0.20752 546.656 0.20752C546.526 0.20752 546.656 0.20752 546.526 0.20752C525.755 0.338152 521.575 15.2303 500.674 15.2303C478.989 15.2303 474.808 0.20752 453.907 0.20752C433.006 0.20752 428.826 15.2303 407.925 15.2303C387.023 15.2303 382.843 0.20752 361.942 0.20752C341.041 0.20752 336.861 15.2303 315.959 15.2303C296.887 15.2303 291.792 2.82017 275.202 0.468785V0.20752C274.288 0.20752 273.373 0.20752 272.589 0.338152C271.675 0.338152 270.891 0.20752 269.977 0.20752V0.599416C253.517 2.82017 248.292 15.3609 229.219 15.3609C208.318 15.3609 204.138 0.338152 183.237 0.338152C162.336 0.338152 158.155 15.3609 137.124 15.3609C116.222 15.3609 112.042 0.338152 91.1409 0.338152C70.2398 0.338152 66.0595 15.3609 45.1583 15.3609C33.4014 15.3609 27.0004 10.6581 19.9463 6.47788C19.8156 6.34724 19.685 6.34725 19.5544 6.21661C13.6759 2.9508 7.79743 0.20752 -1.21621 0.20752V89.0376H1921.43Z" fill="#fada9d" stroke="#161616" 
        stroke-width="2" transform="translate(0, 3)"/>
</svg>